{
  "asset": {
    "generator": "glTF-Transform v4.2.1",
    "version": "2.0"
  },
  "accessors": [
    {
      "type": "VEC3",
      "componentType": 5126,
      "count": 3684,
      "max": [
        0.999829113483429,
        0.9991334080696106,
        1.0009301900863647
      ],
      "min": [
        -1.0001885890960693,
        -1.0017833709716797,
        -0.9818867444992065
      ],
      "bufferView": 0,
      "byteOffset": 0
    },
    {
      "type": "VEC3",
      "componentType": 5126,
      "count": 3684,
      "bufferView": 0,
      "byteOffset": 12
    },
    {
      "type": "VEC2",
      "componentType": 5126,
      "count": 3684,
      "bufferView": 0,
      "byteOffset": 24
    },
    {
      "type": "SCALAR",
      "componentType": 5125,
      "count": 3684,
      "bufferView": 1,
      "byteOffset": 0
    },
    {
      "type": "SCALAR",
      "componentType": 5125,
      "count": 5421,
      "bufferView": 1,
      "byteOffset": 14736
    },
    {
      "type": "SCALAR",
      "componentType": 5125,
      "count": 2565,
      "bufferView": 1,
      "byteOffset": 36420
    },
    {
      "type": "SCALAR",
      "componentType": 5125,
      "count": 498,
      "bufferView": 1,
      "byteOffset": 46680
    },
    {
      "type": "VEC3",
      "componentType": 5126,
      "count": 5421,
      "max": [
        1.0460973978042603,
        1.0396809577941895,
        1.0391769409179688
      ],
      "min": [
        -1.0424513816833496,
        -1.0562149286270142,
        -0.9818867444992065
      ],
      "bufferView": 2,
      "byteOffset": 0
    },
    {
      "type": "VEC3",
      "componentType": 5126,
      "count": 5421,
      "bufferView": 2,
      "byteOffset": 12
    },
    {
      "type": "VEC2",
      "componentType": 5126,
      "count": 5421,
      "bufferView": 2,
      "byteOffset": 24
    },
    {
      "type": "VEC3",
      "componentType": 5126,
      "count": 2565,
      "max": [
        1.0460973978042603,
        1.0396809577941895,
        1.0391769409179688
      ],
      "min": [
        -1.0424513816833496,
        -1.0562149286270142,
        -0.916206955909729
      ],
      "bufferView": 3,
      "byteOffset": 0
    },
    {
      "type": "VEC3",
      "componentType": 5126,
      "count": 2565,
      "bufferView": 3,
      "byteOffset": 12
    },
    {
      "type": "VEC2",
      "componentType": 5126,
      "count": 2565,
      "bufferView": 3,
      "byteOffset": 24
    },
    {
      "type": "VEC3",
      "componentType": 5126,
      "count": 498,
      "max": [
        0.36853307485580444,
        0.4113941490650177,
        -0.8757662773132324
      ],
      "min": [
        -0.39067327976226807,
        -0.4481832981109619,
        -1.0673469305038452
      ],
      "bufferView": 4,
      "byteOffset": 0
    },
    {
      "type": "VEC3",
      "componentType": 5126,
      "count": 498,
      "bufferView": 4,
      "byteOffset": 12
    },
    {
      "type": "VEC2",
      "componentType": 5126,
      "count": 498,
      "bufferView": 4,
      "byteOffset": 24
    }
  ],
  "bufferViews": [
    {
      "buffer": 0,
      "byteOffset": 0,
      "byteLength": 117888,
      "byteStride": 32,
      "target": 34962
    },
    {
      "buffer": 0,
      "byteOffset": 117888,
      "byteLength": 48672,
      "target": 34963
    },
    {
      "buffer": 0,
      "byteOffset": 166560,
      "byteLength": 173472,
      "byteStride": 32,
      "target": 34962
    },
    {
      "buffer": 0,
      "byteOffset": 340032,
      "byteLength": 82080,
      "byteStride": 32,
      "target": 34962
    },
    {
      "buffer": 0,
      "byteOffset": 422112,
      "byteLength": 15936,
      "byteStride": 32,
      "target": 34962
    }
  ],
  "buffers": [
    {
      "uri": "buffer.bin",
      "byteLength": 438048
    }
  ],
  "materials": [
    {
      "name": "Material.009",
      "pbrMetallicRoughness": {
        "baseColorFactor": [
          0.006216820329427719,
          0.37804681062698364,
          0.6827744245529175,
          1
        ],
        "roughnessFactor": 0.5,
        "metallicFactor": 0
      }
    },
    {
      "name": "Material.010",
      "pbrMetallicRoughness": {
        "baseColorFactor": [
          0.05683440342545509,
          0.24227656424045563,
          0.10035599768161774,
          1
        ],
        "roughnessFactor": 0.5,
        "metallicFactor": 0
      }
    },
    {
      "name": "Material.008",
      "pbrMetallicRoughness": {
        "baseColorFactor": [
          0.04057749733328819,
          0.8162760734558105,
          0.11648337543010712,
          1
        ],
        "roughnessFactor": 0.5,
        "metallicFactor": 0
      }
    },
    {
      "name": "Material.005",
      "pbrMetallicRoughness": {
        "baseColorFactor": [
          0.6434436440467834,
          0.759128212928772,
          0.805510401725769,
          1
        ],
        "roughnessFactor": 0.5,
        "metallicFactor": 0
      }
    }
  ],
  "meshes": [
    {
      "name": "Sphere.002",
      "primitives": [
        {
          "attributes": {
            "POSITION": 0,
            "NORMAL": 1,
            "TEXCOORD_0": 2
          },
          "mode": 4,
          "material": 0,
          "indices": 3
        },
        {
          "attributes": {
            "POSITION": 7,
            "NORMAL": 8,
            "TEXCOORD_0": 9
          },
          "mode": 4,
          "material": 1,
          "indices": 4
        },
        {
          "attributes": {
            "POSITION": 10,
            "NORMAL": 11,
            "TEXCOORD_0": 12
          },
          "mode": 4,
          "material": 2,
          "indices": 5
        },
        {
          "attributes": {
            "POSITION": 13,
            "NORMAL": 14,
            "TEXCOORD_0": 15
          },
          "mode": 4,
          "material": 3,
          "indices": 6
        }
      ]
    }
  ],
  "nodes": [
    {
      "name": "RootNode",
      "children": [
        1,
        2,
        3
      ]
    },
    {
      "name": "Sphere",
      "extras": {
        "UserProperties": "",
        "IsNull": false,
        "DefaultAttributeIndex": 0,
        "InheritType": 1
      },
      "rotation": [
        -0.29891847196280436,
        0.6400227811810549,
        0.641644399916605,
        0.29884953679950066
      ],
      "scale": [
        100.00000102622948,
        100.00000845049745,
        100.0000040385145
      ],
      "mesh": 0
    },
    {
      "name": "Camera",
      "extras": {
        "UserProperties": "",
        "IsNull": false,
        "AspectH": 1920,
        "AspectW": 1920,
        "BackgroundMode": 0,
        "DefaultAttributeIndex": 0,
        "ForegroundTransparent": true,
        "InheritType": 1,
        "ResolutionMode": 0,
        "ViewFrustum": true
      },
      "translation": [
        -376.41156005859375,
        212.6060791015625,
        -393.10565185546875
      ],
      "rotation": [
        0.07634470630179703,
        -0.3889735905609343,
        -0.16436268841741836,
        0.9032474407174564
      ],
      "scale": [
        100.00000870418705,
        100.00001223325572,
        100.00003231712653
      ]
    },
    {
      "name": "Sun",
      "extras": {
        "UserProperties": "",
        "IsNull": false,
        "DefaultAttributeIndex": 0,
        "InheritType": 1
      },
      "translation": [
        -392.885498046875,
        52.63119888305664,
        212.15130615234375
      ],
      "rotation": [
        -0.26627728587103794,
        0.5280944217748308,
        0.39694921656699894,
        0.7018860290054925
      ],
      "scale": [
        99.99999993221502,
        100.00000241904434,
        100.0000082951901
      ]
    }
  ],
  "scenes": [
    {
      "nodes": [
        0
      ]
    }
  ],
  "scene": 0,
  "extensionsUsed": [
    "KHR_materials_volume"
  ]
}