<svg xmlns="http://www.w3.org/2000/svg" xmlns:xlink="http://www.w3.org/1999/xlink" width="156.9" height="24.464" viewBox="0 0 156.9 24.464"><defs><clipPath id="clip-path"><rect id="Rectangle_172" data-name="Rectangle 172" width="21.853" height="24.464" transform="translate(0 0)" fill="#fff"></rect></clipPath></defs><g id="Group_229" data-name="Group 229" transform="translate(-67 -29)"><path id="Path_129" data-name="Path 129" d="M3.98,0,.28-14.3H2.16L4.42-5l.54,2.42H5q.34-1.52.6-2.46L8.18-14.3h1.94l2.5,9.26.58,2.46h.04q.34-1.54.56-2.42l2.38-9.3H18L14.02,0H12.3L9.68-10.08l-.52-2.18H9.12q-.3,1.34-.54,2.18L5.78,0Zm15.4,0V-10.34H21V0Zm0-12.3v-2H21v2Zm5.44,1.96v1.36h.04a3.879,3.879,0,0,1,3.28-1.6,3.6,3.6,0,0,1,2.56.86,3.2,3.2,0,0,1,.92,2.46V0H30V-7.12a1.963,1.963,0,0,0-.62-1.55,2.5,2.5,0,0,0-1.72-.55,2.763,2.763,0,0,0-2.04.8,2.788,2.788,0,0,0-.8,2.06V0H23.2V-10.34ZM37.68.3a5.09,5.09,0,0,1-3.29-.95A3.63,3.63,0,0,1,33.1-3.36h1.66q.28,2.3,2.96,2.3a2.881,2.881,0,0,0,1.81-.47,1.5,1.5,0,0,0,.59-1.23,1.282,1.282,0,0,0-.58-1.18,7.219,7.219,0,0,0-2.12-.68q-.64-.14-1.01-.23t-.89-.26a2.972,2.972,0,0,1-.81-.38A4.94,4.94,0,0,1,34.12-6a1.712,1.712,0,0,1-.43-.74,3.453,3.453,0,0,1-.13-.98,2.5,2.5,0,0,1,.97-2.08,4.369,4.369,0,0,1,2.75-.76q3.68,0,4.06,3.24H39.68a2.149,2.149,0,0,0-.7-1.49,2.723,2.723,0,0,0-1.74-.47,2.484,2.484,0,0,0-1.57.41,1.308,1.308,0,0,0-.51,1.07,1.1,1.1,0,0,0,.6,1.07,9.42,9.42,0,0,0,2.18.63q.96.2,1.51.37a5.559,5.559,0,0,1,1.15.52,2.147,2.147,0,0,1,.88.93,3.3,3.3,0,0,1,.28,1.44A2.7,2.7,0,0,1,40.64-.51,4.941,4.941,0,0,1,37.68.3Zm5.64,3.02V-10.34h1.62v1.46h.04a3.939,3.939,0,0,1,3.32-1.7,4,4,0,0,1,3.22,1.45,6.008,6.008,0,0,1,1.22,3.99,6.093,6.093,0,0,1-1.2,3.97A4.029,4.029,0,0,1,48.24.3a3.9,3.9,0,0,1-3.26-1.52h-.04V3.32Zm4.8-4.38a2.5,2.5,0,0,0,2.2-1.12,5.144,5.144,0,0,0,.76-2.94,5.193,5.193,0,0,0-.76-2.95A2.47,2.47,0,0,0,48.14-9.2a2.855,2.855,0,0,0-2.46,1.15,4.84,4.84,0,0,0-.84,2.93,4.949,4.949,0,0,0,.8,2.94A2.841,2.841,0,0,0,48.12-1.06ZM54.36,0V-10.34h1.62V0Zm0-12.3v-2h1.62v2Zm5.44,1.96v1.72h.04a4.064,4.064,0,0,1,1.3-1.33,3.243,3.243,0,0,1,1.78-.51,1.762,1.762,0,0,1,.66.12v1.56h-.06a2.289,2.289,0,0,0-.72-.1,2.906,2.906,0,0,0-2.12.87,3.051,3.051,0,0,0-.88,2.27V0H58.18V-10.34ZM69.06.28a4.593,4.593,0,0,1-3.65-1.55,5.71,5.71,0,0,1-1.35-3.89,5.677,5.677,0,0,1,1.37-3.87,4.47,4.47,0,0,1,3.53-1.57,4.2,4.2,0,0,1,3.52,1.59,6.692,6.692,0,0,1,1.24,4.23h-8a4.433,4.433,0,0,0,.97,2.67,2.939,2.939,0,0,0,2.37,1.03A2.638,2.638,0,0,0,71.92-3.2H73.5A4.292,4.292,0,0,1,71.98-.63,4.587,4.587,0,0,1,69.06.28Zm2.06-8.72a2.737,2.737,0,0,0-2.16-.88,2.77,2.77,0,0,0-2.19.92A4.435,4.435,0,0,0,65.76-6h6.22A3.865,3.865,0,0,0,71.12-8.44ZM78.72,0V-14.3H85.4a4.319,4.319,0,0,1,3.05,1.08,3.683,3.683,0,0,1,1.17,2.84,3.363,3.363,0,0,1-2.48,3.54v.06a2.666,2.666,0,0,1,1.51,1.19,5.964,5.964,0,0,1,.55,2.45q.2,2.74.66,3.06V0H87.92a1.23,1.23,0,0,1-.31-.76q-.09-.58-.21-2.44a3.268,3.268,0,0,0-.77-2.2,3,3,0,0,0-2.13-.64H80.52V0Zm1.8-12.74V-7.5h4.24A3.23,3.23,0,0,0,87-8.19a2.474,2.474,0,0,0,.76-1.93,2.6,2.6,0,0,0-.68-1.98,3.177,3.177,0,0,0-2.22-.64ZM97.96.28A6.173,6.173,0,0,1,93.1-1.8a7.789,7.789,0,0,1-1.84-5.36,7.872,7.872,0,0,1,1.83-5.35,6.217,6.217,0,0,1,4.95-2.11,5.921,5.921,0,0,1,3.94,1.26,5.128,5.128,0,0,1,1.8,3.3h-1.76a3.5,3.5,0,0,0-1.31-2.18A4.274,4.274,0,0,0,98-13.06a4.328,4.328,0,0,0-3.6,1.65,6.662,6.662,0,0,0-1.3,4.25,6.4,6.4,0,0,0,1.35,4.25A4.428,4.428,0,0,0,98.02-1.3a3.873,3.873,0,0,0,2.97-1.12,4.532,4.532,0,0,0,1.19-2.82h1.78a5.83,5.83,0,0,1-.49,2.17,5.578,5.578,0,0,1-1.23,1.85A5.875,5.875,0,0,1,97.96.28ZM105.98,0V-14.3h2.3l4.64,11.88h.04l4.6-11.88h2.34V0h-1.72V-11.76h-.04q-.38,1.12-.64,1.8L113.58,0H112.2l-3.92-9.96-.64-1.8h-.04V0Z" transform="translate(104 47)" fill="#fff"></path><g id="Group_181" data-name="Group 181" transform="translate(67 28.999)"><g id="Group_162" data-name="Group 162" transform="translate(0 0.001)" clip-path="url(#clip-path)"><path id="Path_117" data-name="Path 117" d="M28.155,18.047c-.176.2.192,1.013.141,1.361-.063.429-.714.919-.714.98,0,.111.562.348.53.717-.034.392-.7,1.1-.871,1.581-.656,1.82.234,2.536-2.75,2.109-.539-.077-.96-.429-1.379-.5a16.483,16.483,0,0,0-6.253-.047c-.158-.137.516-.96.655-1.131,1.567-1.924,3.968-3.623,5.546-5.554a39.959,39.959,0,0,0,2.911-4.426c.665-1.626-1.228-1.734-1.367-.612-.039.312.164.6.145.891-.144,2.27-6.546,7.889-8.262,9.8-1.386,1.546-.927,1.546-2.92,2.724-.151.089-.885,1.037-1.035.278a15.218,15.218,0,0,1,1.885-3.192C18.3,18.138,24.673,15.3,24.012,7.77c-.083-.938-1.488-4.255-1.322-4.416.548-.534,3,2.672,3.3,3.192A12.78,12.78,0,0,1,27.4,12.863c-.216,1.718-3.117,6.282-4.514,7.341-.4.307-1.164.514-1.338.73a.769.769,0,1,0,1.256.88c.282-.338.231-.737.447-1.057.8-1.184,2.116-2.336,3.019-3.754.265-.415,1.267-2.512,1.409-2.544.334-.076,1.947,2.146,1.963,2.538.044,1.043-1.374.924-1.483,1.05" transform="translate(-7.785 -2.047)" fill="#fff"></path><path id="Path_118" data-name="Path 118" d="M16.78,17.783C14.954,11.92,5.71,13.221,5.3,19.186c-.1,1.474.426,1.36.57,2.084a1.17,1.17,0,1,1-2.227.7c-.112-.59.294-.835.337-1.282.175-1.8-.15-2.522.8-4.285,2.374-4.427,9.279-5.26,12.19-1.162.57.8.993,2.129-.185,2.54" transform="translate(-2.251 -7.819)" fill="#fff"></path><path id="Path_119" data-name="Path 119" d="M18.945,25.34c.8-3.078-.87-5.708-4.216-5.252a3.726,3.726,0,0,0-2.26,5.805c.667.86,1.027.363,1.694.752a1.2,1.2,0,0,1-.864,2.2,12.051,12.051,0,0,1-2.344-2.94c-2.595-5.839,5.273-9.967,8.743-4.986,1.026,1.472,1.147,3.693-.752,4.424" transform="translate(-6.486 -11.612)" fill="#fff"></path><path id="Path_120" data-name="Path 120" d="M15.466,10.294c-.763.1-1.068-.765-1.6-1.127a8.472,8.472,0,0,0-9.48-.079c-1.585,1.034-1.5,1.338-2.232,2.848C1.4,13.5-.808,11.973.311,10.653c.258-.3.706-.33.957-.547,2.838-2.443,4.8-4.271,8.983-3.72,1.767.233,5.727,1.589,5.215,3.907" transform="translate(0 -3.907)" fill="#fff"></path><path id="Path_121" data-name="Path 121" d="M16.116,2.811c-.167.167-2.353-.928-2.811-1.043a11.44,11.44,0,0,0-7.251.478c-1.248.538-.83.572-1.489,1.333-1.394,1.608-2.848-.935-1.415-1.6.322-.15.721-.1,1.067-.25C7.254.374,9.275-.452,12.739.265c1.41.292,3.334.784,3.378,2.547" transform="translate(-1.591 0)" fill="#fff"></path><path id="Path_122" data-name="Path 122" d="M21.992,27.452a2.712,2.712,0,1,1-2.712-2.714,2.713,2.713,0,0,1,2.712,2.714M18.941,26.12a1.341,1.341,0,0,0-.195,2.562c2.587.77,2.379-3.011.195-2.562" transform="translate(-10.294 -15.37)" fill="#fff"></path></g></g></g></svg>